solid 626 Tower Brace
facet normal 0.0 0.0 1.0
outer loop
vertex 35.0 0.0 3.0
vertex 0.0 35.0 3.0
vertex 0.0 0.0 3.0
endloop
endfacet
facet normal 0.0 0.0 1.0
outer loop
vertex 0.0 35.0 3.0
vertex 35.0 0.0 3.0
vertex 35.0 35.0 3.0
endloop
endfacet
facet normal 0.0 0.0 -1.0
outer loop
vertex 35.0 35.0 0.0
vertex 0.0 0.0 0.0
vertex 0.0 35.0 0.0
endloop
endfacet
facet normal 0.0 0.0 -1.0
outer loop
vertex 0.0 0.0 0.0
vertex 35.0 35.0 0.0
vertex 35.0 0.0 0.0
endloop
endfacet
facet normal 0.0 1.0 0.0
outer loop
vertex 0.0 35.0 3.0
vertex 35.0 35.0 0.0
vertex 0.0 35.0 0.0
endloop
endfacet
facet normal 0.0 1.0 0.0
outer loop
vertex 35.0 35.0 0.0
vertex 0.0 35.0 3.0
vertex 35.0 35.0 3.0
endloop
endfacet
facet normal -1.0 0.0 0.0
outer loop
vertex 0.0 35.0 3.0
vertex 0.0 0.0 0.0
vertex 0.0 0.0 3.0
endloop
endfacet
facet normal -1.0 0.0 0.0
outer loop
vertex 0.0 0.0 0.0
vertex 0.0 35.0 3.0
vertex 0.0 35.0 0.0
endloop
endfacet
facet normal -0.0 -1.0 -0.0
outer loop
vertex 35.0 0.0 3.0
vertex 0.0 0.0 0.0
vertex 35.0 0.0 0.0
endloop
endfacet
facet normal -0.0 -1.0 -0.0
outer loop
vertex 0.0 0.0 0.0
vertex 35.0 0.0 3.0
vertex 0.0 0.0 3.0
endloop
endfacet
facet normal 1.0 0.0 0.0
outer loop
vertex 35.0 35.0 0.0
vertex 35.0 0.0 3.0
vertex 35.0 0.0 0.0
endloop
endfacet
facet normal 1.0 0.0 0.0
outer loop
vertex 35.0 0.0 3.0
vertex 35.0 35.0 0.0
vertex 35.0 35.0 3.0
endloop
endfacet
endsolid 626 Tower Brace
